<svg xmlns="http://www.w3.org/2000/svg" version="1.1" xmlns:xlink="http://www.w3.org/1999/xlink" xmlns:svgjs="http://svgjs.com/svgjs" width="442" height="442"><svg width="442" height="442" viewBox="0 0 442 442" fill="none" xmlns="http://www.w3.org/2000/svg">
<path d="M219.01 441.733C214.178 441.672 208.414 441.371 206.199 441.065C203.985 440.759 200.216 440.475 197.825 440.436C195.433 440.396 191.567 440.014 189.233 439.587C186.899 439.16 182.516 438.325 179.494 437.734C176.472 437.142 171.91 436.202 169.357 435.645C166.804 435.089 161.448 433.58 157.456 432.291C153.465 431.003 148.717 429.512 146.905 428.978C145.093 428.444 141.14 426.988 138.12 425.744C135.101 424.5 129.83 422.128 126.408 420.473C122.986 418.818 119.033 416.897 117.624 416.202C116.215 415.508 113.763 414.207 112.176 413.311C110.589 412.415 106.471 409.856 103.026 407.626C99.5799 405.395 94.4623 401.884 91.6527 399.823C88.8432 397.762 84.5609 394.492 82.1364 392.556C79.7119 390.62 75.9163 387.49 73.7019 385.602C71.4875 383.712 68.3523 380.849 66.7337 379.239C65.116 377.629 61.4917 373.84 58.68 370.821C55.8682 367.801 50.979 361.872 47.8152 357.644C44.6521 353.417 41.3506 349.134 40.4803 348.128C39.6091 347.121 38.1224 344.98 37.1766 343.37C36.2301 341.759 34.8458 339.559 34.0992 338.481C33.3532 337.404 32.0758 335.344 31.2603 333.907C30.4456 332.468 28.893 329.727 27.8103 327.815C26.7276 325.902 24.9268 322.438 23.8083 320.117C22.689 317.795 20.643 313.513 19.2609 310.6C17.8781 307.688 15.0437 300.235 12.9611 294.04C10.8785 287.845 8.24682 279.116 7.11217 274.642C5.97826 270.167 4.53982 263.542 3.91613 259.918C3.29244 256.295 2.35032 250.036 1.82326 246.01C1.23324 241.5 0.892851 231.714 0.938237 220.521C0.979963 210.118 1.40674 199.637 1.93746 195.998C2.44695 192.503 3.47911 186.02 4.23164 181.591C4.98343 177.162 6.76738 169.256 8.19631 164.022C9.62449 158.788 12.292 150.388 14.1235 145.356C15.9551 140.323 18.8276 133.425 20.5061 130.027C22.1846 126.629 23.8874 123.926 24.29 124.021C24.6926 124.116 24.9129 124.92 24.7797 125.807C24.6465 126.695 23.6926 130.386 22.6597 134.009C21.6276 137.633 20.3743 142.574 19.8751 144.99C19.3759 147.405 18.4374 152.017 17.7895 155.238C17.1417 158.459 16.2969 162.741 15.9134 164.754C15.5298 166.768 14.8709 171.462 14.4486 175.187C14.0269 178.911 13.3513 184.693 12.9464 188.035C12.5424 191.377 12.2115 200.423 12.2115 208.137C12.2115 215.85 12.5387 225.551 12.9384 229.693C13.3381 233.836 14.0079 239.861 14.4259 243.082C14.8439 246.303 15.4895 250.42 15.8599 252.232C16.2303 254.044 16.9177 257.503 17.3884 259.918C17.8584 262.334 18.8927 266.781 19.687 269.801C20.4812 272.82 21.6298 276.938 22.2396 278.951C22.8493 280.964 24.178 284.917 25.1918 287.735C26.2057 290.554 27.5497 294.342 28.18 296.154C28.8095 297.965 32.3708 305.542 36.0939 312.99C39.817 320.439 45.062 329.827 47.7493 333.853C50.4373 337.879 54.0462 343.15 55.7701 345.566C57.4941 347.981 60.6315 351.934 62.7427 354.35C64.8532 356.766 68.6136 360.883 71.0988 363.5C73.5848 366.117 77.9843 370.474 80.8773 373.182C83.7695 375.89 89.1858 380.527 92.9126 383.486C96.6393 386.446 103.292 391.279 107.696 394.227C112.1 397.176 120.006 401.762 125.264 404.42C130.522 407.077 137.46 410.356 140.682 411.704C143.903 413.054 148.515 414.808 150.931 415.605C153.347 416.401 155.982 417.324 156.787 417.654C157.592 417.985 160.063 418.777 162.277 419.414C164.492 420.051 169.104 421.214 172.526 422C175.948 422.784 182.866 424.127 187.898 424.983C194.088 426.037 201.904 426.68 212.055 426.971C221.075 427.229 231.15 427.063 237.31 426.555C242.947 426.09 250.688 425.234 254.513 424.653C258.338 424.073 264.762 422.763 268.788 421.741C272.814 420.719 278.414 419.169 281.232 418.294C284.05 417.42 289.367 415.613 293.047 414.278C296.728 412.942 302.315 410.676 305.464 409.241C308.613 407.806 313.799 405.302 316.988 403.678C320.178 402.053 325.742 398.895 329.354 396.661C332.967 394.426 338.605 390.592 341.884 388.14C345.164 385.689 351.141 380.882 355.167 377.459C359.193 374.036 365.4 368.259 368.96 364.623C372.521 360.986 378.175 354.528 381.527 350.272C384.878 346.017 390.414 338.264 393.83 333.044C397.246 327.825 401.824 320.092 404.004 315.86C406.184 311.628 409.217 305.215 410.744 301.61C412.272 298.005 414.604 291.882 415.928 288.003C417.251 284.124 419.216 277.427 420.294 273.121C421.373 268.815 422.579 263.589 422.976 261.507C423.372 259.426 424.012 255.581 424.395 252.964C424.779 250.347 425.405 244.912 425.785 240.885C426.165 236.859 426.474 228.295 426.471 221.853C426.467 215.411 426.145 206.681 425.752 202.454C425.36 198.227 424.755 192.791 424.409 190.375C424.062 187.96 423.43 184.172 423.004 181.957C422.577 179.743 421.225 174.063 419.999 169.336C418.772 164.609 416.735 157.691 415.472 153.964C414.21 150.236 412.236 144.804 411.088 141.892C409.938 138.981 407.156 132.927 404.905 128.438C402.654 123.95 398.653 116.779 396.014 112.503C393.376 108.226 389.287 102.162 386.928 99.0241C384.57 95.8874 380.361 90.6168 377.574 87.3117C374.787 84.0073 368.935 77.8063 364.569 73.5327C360.203 69.2591 353.996 63.6378 350.775 61.0413C347.554 58.4448 342.119 54.3381 338.696 51.9151C335.274 49.4921 329.674 45.8437 326.252 43.8072C322.83 41.7714 316.657 38.4202 312.534 36.3617C308.412 34.3025 301.659 31.2675 297.528 29.6182C293.396 27.9682 287.217 25.7012 283.794 24.5797C280.372 23.4582 273.948 21.6779 269.52 20.6223C265.091 19.5675 259.985 18.3926 258.173 18.0112C256.361 17.6305 251.75 16.8912 247.925 16.3692C243.633 15.7836 233.265 15.4205 220.84 15.4205C202.771 15.4205 199.809 15.5948 191.925 17.124C187.093 18.061 180.834 19.4848 178.016 20.2885C175.198 21.093 170.092 22.7547 166.67 23.9823C163.247 25.2092 158.306 27.2252 155.689 28.4609C153.072 29.6973 147.472 32.7982 143.245 35.353C139.017 37.907 133.608 41.3849 131.225 43.0817C128.842 44.7778 124.395 48.4307 121.343 51.1992C118.291 53.967 113.734 58.4141 111.218 61.0816C108.702 63.7484 104.584 68.5 102.068 71.6396C99.5513 74.7793 96.1057 79.5558 94.4096 82.2541C92.7142 84.9516 89.7458 89.9594 87.814 93.3816C85.8814 96.8039 82.9387 102.569 81.2733 106.192C79.6087 109.816 77.5099 115.086 76.6103 117.905C75.7099 120.723 74.688 123.688 74.3388 124.493C73.9889 125.298 72.8755 129.251 71.8638 133.277C70.8514 137.303 69.6772 142.574 69.2534 144.99C68.8288 147.405 68.0236 153.005 67.4636 157.434C66.9036 161.863 66.4307 169.015 66.4131 173.327C66.3955 177.64 66.7103 184.557 67.1122 188.7C67.5141 192.842 68.1963 199.032 68.6282 202.454C69.0594 205.876 69.7285 210.653 70.1143 213.068C70.5008 215.484 71.1376 219.025 71.53 220.937C71.9224 222.849 72.9516 227.461 73.8176 231.185C74.6836 234.91 76.8189 241.992 78.5633 246.925C80.307 251.856 82.9131 258.445 84.353 261.565C85.7936 264.685 87.6522 268.556 88.4838 270.167C89.3146 271.777 90.8314 274.577 91.8533 276.389C92.8752 278.201 94.5626 280.971 95.602 282.546C96.6423 284.121 98.1056 286.426 98.8537 287.67C99.6026 288.914 101.648 291.987 103.4 294.5C105.152 297.013 108.788 301.79 111.48 305.114C114.173 308.44 121.021 315.716 126.699 321.285C132.377 326.854 137.138 331.924 137.279 332.553C137.46 333.357 137.132 333.591 136.175 333.341C135.427 333.145 132.017 331.409 128.598 329.484C125.179 327.558 120.735 324.82 118.722 323.401C116.709 321.98 111.989 318.164 108.235 314.921C104.48 311.677 98.7417 305.881 95.482 302.039C92.223 298.198 86.929 291.103 83.719 286.271C80.5083 281.44 75.778 273.175 73.2063 267.903C70.6355 262.633 67.692 256.044 66.6657 253.263C65.6386 250.482 64.0033 245.735 63.0304 242.716C62.0575 239.696 60.9324 236.072 60.5298 234.663C60.1272 233.254 59.1668 229.301 58.3967 225.879C57.6258 222.457 56.6427 217.68 56.2116 215.264C55.7811 212.849 55.1047 207.908 54.7094 204.284C54.3141 200.66 53.6465 194.402 53.2249 190.375C52.804 186.349 52.4621 179.284 52.4658 174.675C52.4702 170.065 52.8186 163.477 53.241 160.034C53.6634 156.591 54.3507 151.139 54.768 147.918C55.1853 144.697 56.011 139.591 56.6032 136.571C57.1954 133.552 58.292 128.775 59.0409 125.957C59.7897 123.139 61.4236 117.741 62.671 113.96C63.9191 110.181 66.561 103.428 68.5426 98.9538C70.5242 94.4804 73.475 88.4016 75.0994 85.4472C76.7245 82.492 79.7617 77.5508 81.8479 74.4667C83.9342 71.382 87.8052 66.0586 90.4508 62.6364C93.0963 59.2142 97.7396 53.8206 100.769 50.6502C103.799 47.4805 109.407 42.3512 113.231 39.2517C117.056 36.1523 123.413 31.4051 127.356 28.7025C131.299 26.0006 137.723 22.1823 141.631 20.219C145.538 18.255 151.426 15.4652 154.714 14.0194C158.003 12.5737 163.768 10.3812 167.525 9.14778C171.282 7.91431 177.65 6.15158 181.676 5.22996C185.702 4.30907 191.138 3.18979 193.755 2.74179C196.372 2.29452 201.972 1.54566 206.199 1.07789C211.025 0.543508 219.062 0.391246 227.794 0.667953C235.444 0.910987 243.514 1.28505 245.729 1.50027C247.943 1.71622 251.402 2.20668 253.415 2.59173C255.428 2.97677 259.875 3.83398 263.297 4.49647C266.72 5.15895 270.837 5.98029 272.448 6.32288C274.058 6.664 277.517 7.57684 280.134 8.34987C282.751 9.12362 288.516 10.9947 292.945 12.5078C297.373 14.0209 303.962 16.5771 307.585 18.1876C311.209 19.7988 316.809 22.4275 320.03 24.0299C323.251 25.6323 329.015 28.7852 332.84 31.0362C336.665 33.2872 341.782 36.4591 344.212 38.0856C346.64 39.7115 352.109 43.7464 356.365 47.053C360.62 50.3596 368.157 56.9478 373.114 61.6936C378.072 66.4393 385.161 73.9463 388.867 78.375C392.574 82.8038 397.735 89.3921 400.338 93.0156C402.939 96.6392 407.159 103.063 409.714 107.29C412.269 111.518 416.169 118.765 418.381 123.395C420.594 128.025 423.522 134.613 424.89 138.035C426.258 141.458 428.358 147.219 429.557 150.84C430.756 154.461 432.417 159.896 433.248 162.919C434.079 165.941 435.392 171.379 436.165 175.003C436.938 178.626 437.911 183.732 438.326 186.349C438.741 188.966 439.39 193.743 439.768 196.964C440.145 200.185 440.662 209.244 440.916 217.095C441.209 226.143 441.067 234.317 440.529 239.421C440.061 243.85 439.339 249.78 438.925 252.598C438.51 255.416 437.829 259.534 437.409 261.748C436.99 263.963 436.299 267.422 435.873 269.435C435.447 271.448 434.299 276.059 433.322 279.683C432.346 283.307 430.636 288.907 429.522 292.128C428.407 295.348 426.392 300.784 425.042 304.206C423.692 307.628 419.908 315.739 416.633 322.23C413.358 328.721 408.524 337.286 405.89 341.263C403.256 345.24 398.021 352.447 394.255 357.278C390.49 362.109 382.79 370.699 377.144 376.366C371.499 382.032 363.263 389.539 358.843 393.045C354.423 396.551 348.659 400.859 346.033 402.616C343.407 404.375 339.299 407.05 336.903 408.563C334.508 410.076 330.72 412.297 328.485 413.499C326.25 414.701 321.833 417.005 318.667 418.62C315.503 420.236 310.562 422.533 307.687 423.726C304.813 424.919 299.826 426.864 296.605 428.048C293.384 429.233 287.784 431.131 284.16 432.266C280.537 433.401 273.784 435.173 269.154 436.203C264.524 437.233 257.441 438.574 253.415 439.183C249.389 439.791 241.977 440.639 236.944 441.067C231.912 441.494 223.841 441.794 219.01 441.733ZM184.221 408.154C183.784 408.154 183.506 403.416 183.506 395.977C183.506 389.279 183.156 381.621 182.73 378.957C182.302 376.294 181.615 372.303 181.202 370.089C180.789 367.874 179.939 363.757 179.313 360.938C178.687 358.12 177.384 353.508 176.416 350.69C175.448 347.872 173.955 343.919 173.098 341.905C172.242 339.892 170.965 336.928 170.262 335.317C169.558 333.707 167.479 329.26 165.641 325.435C163.804 321.61 160.998 316.175 159.407 313.356C157.278 309.586 153.97 305.745 146.888 298.82C141.594 293.644 134.472 285.903 131.061 281.618C127.65 277.333 122.738 270.661 120.146 266.791C117.553 262.921 114.026 256.992 112.305 253.615C110.586 250.237 107.893 244.509 106.321 240.885C104.749 237.262 103.061 233.309 102.569 232.101C102.076 230.893 101 227.764 100.177 225.147C99.3537 222.53 98.1824 218.577 97.5734 216.363C96.9643 214.148 95.9702 210.195 95.3649 207.578C94.7595 204.961 93.9015 200.185 93.4587 196.964C93.0158 193.743 92.3423 189.093 91.9617 186.631C91.5817 184.169 91.2706 176.009 91.2706 168.497C91.2706 154.841 91.2706 154.841 93.0963 154.009C94.3671 153.43 98.76 153.318 107.554 153.642C114.502 153.897 123.315 154.595 127.14 155.193C130.965 155.792 135.906 156.613 138.12 157.019C140.335 157.425 144.453 158.249 147.271 158.849C150.089 159.45 153.548 160.28 154.957 160.693C156.366 161.107 160.319 162.238 163.742 163.209C167.164 164.179 172.599 165.956 175.82 167.157C179.041 168.358 183.921 170.401 186.664 171.698C189.406 172.994 192.536 174.867 193.618 175.859C195.585 177.664 195.585 177.664 190.827 177.23C188.21 176.99 184.586 176.485 182.774 176.107C180.962 175.728 177.422 175.078 174.905 174.662C172.389 174.245 168.435 173.596 166.121 173.219C163.806 172.841 159.606 172.185 156.787 171.761C153.969 171.338 150.181 170.839 148.369 170.654C146.557 170.469 138.237 169.819 129.879 169.21C121.182 168.576 112.885 168.333 110.48 168.639C106.277 169.176 106.277 169.176 106.396 177.58C106.461 182.202 106.883 188.783 107.334 192.206C107.783 195.628 108.65 200.734 109.257 203.552C109.866 206.37 110.878 210.488 111.508 212.702C112.136 214.917 113.504 219.199 114.546 222.219C115.589 225.238 117.471 230.18 118.73 233.199C119.99 236.219 123.2 242.642 125.863 247.474C128.527 252.305 132.993 259.552 135.789 263.578C138.585 267.605 142.97 273.185 145.535 275.98C148.1 278.774 152.999 283.839 156.421 287.233C159.843 290.628 166.761 296.862 171.794 301.087C176.827 305.311 183.364 310.408 186.32 312.412C189.277 314.416 194.218 317.26 197.301 318.732C202.234 321.088 203.573 321.409 208.483 321.409C213.626 321.409 214.557 321.158 220.428 318.18C223.93 316.405 229.335 313.11 232.44 310.86C235.543 308.609 241.368 304.098 245.383 300.833C249.398 297.569 256.908 290.816 262.071 285.826C267.234 280.837 271.813 276.628 272.247 276.474C272.769 276.288 272.872 277.016 272.55 278.625C272.282 279.961 270.703 283.547 269.042 286.591C267.38 289.636 263.864 294.928 261.229 298.35C258.593 301.772 253.287 307.829 249.436 311.809C245.585 315.789 239.141 321.521 235.114 324.548C231.088 327.575 225.335 331.223 222.329 332.657C217.552 334.936 216.007 335.301 210.042 335.562C204.327 335.811 202.479 335.595 198.67 334.226C196.167 333.328 191.422 331.146 188.125 329.378C184.828 327.611 181.956 326.446 181.744 326.789C181.532 327.132 182.292 330.345 183.432 333.927C184.572 337.51 186.183 343.077 187.011 346.298C187.839 349.519 188.852 353.966 189.261 356.18C189.67 358.394 190.354 362.385 190.782 365.049C191.209 367.712 191.559 374.037 191.559 379.104C191.559 384.171 191.202 390.063 190.767 392.197C190.331 394.33 189.307 398.052 188.491 400.468C187.676 402.884 186.543 405.602 185.972 406.507C185.403 407.413 184.615 408.154 184.221 408.154ZM250.406 399.984C249.634 400.152 249.348 399.786 249.513 398.843C249.646 398.079 250.785 395.825 252.044 393.836C253.303 391.847 255.95 387.419 257.926 383.997C259.902 380.575 262.557 375.634 263.827 373.017C265.097 370.4 267.105 365.953 268.29 363.134C269.474 360.316 271.288 355.54 272.32 352.52C273.352 349.5 274.905 344.724 275.772 341.905C276.638 339.087 278.003 334.311 278.805 331.291C279.607 328.271 280.531 324.483 280.859 322.873C281.187 321.262 281.984 316.651 282.63 312.624C283.277 308.598 284.133 303.074 284.532 300.349C284.932 297.624 285.261 288.73 285.263 280.584C285.266 272.439 284.917 263.139 284.488 259.918C284.06 256.697 283.374 252.25 282.965 250.036C282.556 247.821 281.916 244.775 281.543 243.265C281.171 241.755 280.494 239.12 280.039 237.408C279.584 235.697 278.427 231.991 277.467 229.173C276.508 226.355 274.162 220.765 272.255 216.751C270.348 212.738 267.184 206.974 265.224 203.941C263.264 200.909 259.932 196.287 257.818 193.67C255.705 191.053 252.532 187.416 250.767 185.587C249.002 183.759 245.253 180.2 242.435 177.678C239.616 175.156 233.193 170.34 228.16 166.975C223.127 163.611 215.129 158.873 210.387 156.448C205.644 154.023 198.26 150.668 193.977 148.993C189.693 147.319 182.374 144.814 177.71 143.428C173.047 142.041 167.091 140.304 164.474 139.568C161.857 138.832 158.068 137.868 156.055 137.424C154.042 136.981 149.924 136.131 146.905 135.536C143.885 134.94 139.273 134.088 136.656 133.641C134.039 133.195 129.592 132.487 126.774 132.067C123.956 131.648 119.535 131.089 116.95 130.826C114.365 130.564 112.128 129.979 111.978 129.526C111.829 129.072 112.626 128.478 113.75 128.205C114.874 127.933 121.394 127.513 128.238 127.275C135.905 127.006 144.476 127.185 150.565 127.74C156 128.236 164.236 129.284 168.866 130.069C173.496 130.856 181.072 132.498 185.702 133.72C190.332 134.943 196.756 136.877 199.977 138.019C203.198 139.161 208.63 141.3 212.047 142.772C215.464 144.244 220.62 146.708 223.504 148.245C226.389 149.782 232.157 153.366 236.324 156.209C240.49 159.052 246.538 163.621 249.765 166.361C252.992 169.101 258.003 173.902 260.902 177.03C263.8 180.158 268.627 186.01 271.628 190.034C275.037 194.606 279.165 201.536 282.628 208.504C285.677 214.638 289.205 222.621 290.467 226.245C291.729 229.868 293.072 233.986 293.45 235.395C293.827 236.804 294.478 239.44 294.894 241.252C295.31 243.063 295.956 245.863 296.33 247.474C296.704 249.084 297.403 252.872 297.886 255.892C298.41 259.173 298.763 269.337 298.763 281.147C298.763 292.958 298.41 303.121 297.886 306.402C297.403 309.422 296.704 313.21 296.332 314.82C295.959 316.431 295.311 319.396 294.892 321.409C294.472 323.422 292.952 328.685 291.514 333.105C290.075 337.525 287.961 343.454 286.816 346.282C285.671 349.109 282.704 355.375 280.223 360.206C277.743 365.038 275.022 370.144 274.177 371.553C273.332 372.962 270.991 376.585 268.975 379.605C266.958 382.625 263.786 386.895 261.924 389.095C260.063 391.295 256.965 394.589 255.04 396.415C253.116 398.242 251.03 399.848 250.406 399.984ZM209.063 291.729C198.74 291.701 196.688 291.503 194.487 290.32C193.078 289.563 189.913 286.86 187.454 284.313C184.995 281.766 181.548 278.087 179.793 276.137C178.039 274.186 176.604 271.987 176.604 271.25C176.604 270.513 178.569 268.035 180.971 265.744C183.372 263.453 188.096 259.24 191.469 256.382C195.613 252.87 198.345 251.1 199.888 250.926C201.344 250.761 203.448 251.35 205.689 252.548C209.205 254.428 209.205 254.428 211.898 252.598C213.38 251.591 215.635 250.768 216.911 250.768C218.541 250.768 220.606 251.802 223.856 254.245C226.4 256.157 231.4 260.505 234.967 263.906C239.983 268.689 241.383 270.449 241.148 271.676C240.982 272.549 239.283 274.872 237.373 276.839C235.464 278.806 232.362 282.171 230.481 284.317C228.601 286.463 225.715 289.016 224.069 289.99C221.223 291.675 220.489 291.76 209.063 291.729ZM208.4 278.527C211.825 278.559 215.753 278.262 217.129 277.868C218.505 277.473 220.562 276.258 221.7 275.169C222.837 274.079 223.75 272.672 223.728 272.043C223.705 271.413 222.688 270.109 221.468 269.143C220.248 268.178 218.371 267.392 217.299 267.398C216.227 267.403 213.867 267.973 212.056 268.663C208.856 269.883 208.654 269.874 204.896 268.316C201.605 266.952 200.714 266.844 198.909 267.592C197.743 268.075 196.232 269.085 195.551 269.838C194.763 270.709 194.471 271.833 194.747 272.934C194.986 273.886 195.766 275.174 196.481 275.797C197.196 276.42 198.769 277.276 199.977 277.7C201.185 278.123 204.975 278.496 208.4 278.527Z" fill="url(#paint0_linear)"></path>
<defs>
<linearGradient id="SvgjsLinearGradient1000" x1="370.786" y1="20.1379" x2="101.309" y2="422.73" gradientUnits="userSpaceOnUse">
<stop stop-color="#735247"></stop>
<stop offset="1" stop-color="#EBB67C"></stop>
</linearGradient>
</defs>
</svg><style>@media (prefers-color-scheme: light) { :root { filter: none; } }
</style></svg>