<svg width="776" height="752" viewBox="0 0 776 752" fill="none" xmlns="http://www.w3.org/2000/svg">
<path d="M386.01 540.733C381.178 540.672 375.414 540.371 373.199 540.065C370.985 539.759 367.216 539.475 364.825 539.436C362.433 539.396 358.567 539.014 356.233 538.587C353.899 538.16 349.516 537.325 346.494 536.734C343.472 536.142 338.91 535.202 336.357 534.645C333.804 534.089 328.448 532.58 324.456 531.291C320.465 530.003 315.717 528.512 313.905 527.978C312.093 527.444 308.14 525.989 305.12 524.744C302.101 523.5 296.83 521.128 293.408 519.473C289.986 517.818 286.033 515.897 284.624 515.202C283.215 514.508 280.763 513.207 279.176 512.311C277.589 511.415 273.471 508.856 270.026 506.626C266.58 504.395 261.462 500.884 258.653 498.823C255.843 496.762 251.561 493.492 249.136 491.556C246.712 489.62 242.916 486.49 240.702 484.602C238.488 482.712 235.352 479.849 233.734 478.239C232.116 476.629 228.492 472.84 225.68 469.821C222.868 466.801 217.979 460.872 214.815 456.644C211.652 452.417 208.351 448.134 207.48 447.128C206.609 446.121 205.122 443.98 204.177 442.37C203.23 440.759 201.846 438.559 201.099 437.481C200.353 436.404 199.076 434.344 198.26 432.907C197.446 431.468 195.893 428.727 194.81 426.815C193.728 424.902 191.927 421.438 190.808 419.117C189.689 416.795 187.643 412.513 186.261 409.6C184.878 406.688 182.044 399.235 179.961 393.04C177.878 386.845 175.247 378.116 174.112 373.642C172.978 369.167 171.54 362.542 170.916 358.918C170.292 355.295 169.35 349.036 168.823 345.01C168.233 340.5 167.893 330.714 167.938 319.521C167.98 309.118 168.407 298.637 168.937 294.998C169.447 291.503 170.479 285.02 171.232 280.591C171.983 276.162 173.767 268.256 175.196 263.022C176.624 257.788 179.292 249.388 181.124 244.356C182.955 239.323 185.828 232.425 187.506 229.027C189.185 225.629 190.887 222.926 191.29 223.021C191.693 223.116 191.913 223.92 191.78 224.807C191.646 225.695 190.693 229.386 189.66 233.009C188.628 236.633 187.374 241.574 186.875 243.99C186.376 246.405 185.437 251.017 184.79 254.238C184.142 257.459 183.297 261.741 182.913 263.754C182.53 265.768 181.871 270.462 181.449 274.187C181.027 277.911 180.351 283.693 179.946 287.035C179.542 290.377 179.211 299.423 179.211 307.137C179.211 314.85 179.539 324.551 179.938 328.693C180.338 332.836 181.008 338.861 181.426 342.082C181.844 345.303 182.49 349.42 182.86 351.232C183.23 353.044 183.918 356.503 184.388 358.918C184.858 361.334 185.893 365.781 186.687 368.801C187.481 371.82 188.63 375.938 189.24 377.951C189.849 379.964 191.178 383.917 192.192 386.735C193.206 389.554 194.55 393.342 195.18 395.154C195.81 396.965 199.371 404.542 203.094 411.99C206.817 419.439 212.062 428.827 214.749 432.853C217.437 436.879 221.046 442.15 222.77 444.566C224.494 446.981 227.632 450.934 229.743 453.35C231.853 455.766 235.614 459.883 238.099 462.5C240.585 465.117 244.984 469.474 247.877 472.182C250.77 474.89 256.186 479.527 259.913 482.486C263.639 485.446 270.292 490.279 274.696 493.227C279.1 496.176 287.006 500.762 292.264 503.42C297.522 506.077 304.46 509.356 307.682 510.704C310.903 512.054 315.515 513.808 317.931 514.605C320.347 515.401 322.982 516.324 323.787 516.654C324.592 516.985 327.063 517.777 329.277 518.414C331.492 519.051 336.104 520.214 339.526 521C342.948 521.784 349.866 523.127 354.898 523.983C361.088 525.037 368.904 525.68 379.055 525.971C388.075 526.229 398.15 526.063 404.31 525.555C409.947 525.09 417.688 524.234 421.513 523.653C425.338 523.073 431.762 521.763 435.788 520.741C439.814 519.719 445.414 518.169 448.232 517.294C451.05 516.42 456.367 514.613 460.047 513.278C463.728 511.942 469.315 509.676 472.464 508.241C475.613 506.806 480.799 504.302 483.988 502.678C487.178 501.053 492.742 497.895 496.354 495.661C499.967 493.426 505.605 489.592 508.884 487.14C512.164 484.689 518.141 479.882 522.167 476.459C526.193 473.036 532.4 467.259 535.96 463.623C539.521 459.986 545.175 453.528 548.527 449.272C551.878 445.017 557.414 437.264 560.83 432.044C564.246 426.825 568.824 419.093 571.004 414.86C573.184 410.628 576.217 404.215 577.744 400.61C579.272 397.005 581.604 390.882 582.928 387.003C584.251 383.124 586.216 376.427 587.294 372.121C588.373 367.815 589.579 362.589 589.976 360.507C590.372 358.426 591.012 354.581 591.395 351.964C591.779 349.347 592.405 343.912 592.785 339.885C593.165 335.859 593.474 327.295 593.471 320.853C593.467 314.411 593.145 305.681 592.752 301.454C592.36 297.226 591.755 291.791 591.409 289.375C591.062 286.96 590.43 283.172 590.004 280.957C589.577 278.743 588.225 273.063 586.999 268.336C585.772 263.609 583.735 256.691 582.472 252.964C581.21 249.236 579.236 243.804 578.088 240.892C576.938 237.981 574.156 231.927 571.905 227.439C569.654 222.95 565.653 215.779 563.014 211.503C560.376 207.226 556.287 201.162 553.928 198.024C551.57 194.887 547.361 189.617 544.574 186.312C541.787 183.007 535.935 176.806 531.569 172.533C527.203 168.259 520.996 162.638 517.775 160.041C514.554 157.445 509.119 153.338 505.696 150.915C502.274 148.492 496.674 144.844 493.252 142.807C489.83 140.771 483.657 137.42 479.534 135.362C475.412 133.302 468.659 130.268 464.528 128.618C460.396 126.968 454.217 124.701 450.794 123.58C447.372 122.458 440.948 120.678 436.52 119.622C432.091 118.567 426.985 117.393 425.173 117.011C423.361 116.631 418.75 115.891 414.925 115.369C410.633 114.784 400.265 114.421 387.84 114.421C369.771 114.421 366.809 114.595 358.925 116.124C354.093 117.061 347.834 118.485 345.016 119.289C342.198 120.093 337.092 121.755 333.67 122.982C330.247 124.209 325.306 126.225 322.689 127.461C320.072 128.697 314.472 131.798 310.245 134.353C306.017 136.907 300.608 140.385 298.225 142.082C295.842 143.778 291.395 147.431 288.343 150.199C285.291 152.967 280.734 157.414 278.218 160.082C275.702 162.748 271.584 167.5 269.068 170.64C266.551 173.779 263.106 178.556 261.41 181.254C259.714 183.952 256.746 188.959 254.814 192.382C252.881 195.804 249.939 201.569 248.273 205.192C246.609 208.816 244.51 214.086 243.61 216.905C242.71 219.723 241.688 222.688 241.339 223.493C240.989 224.298 239.875 228.251 238.864 232.277C237.851 236.303 236.677 241.574 236.253 243.99C235.829 246.405 235.024 252.005 234.464 256.434C233.904 260.863 233.431 268.015 233.413 272.327C233.396 276.64 233.71 283.557 234.112 287.7C234.514 291.842 235.196 298.032 235.628 301.454C236.059 304.876 236.728 309.653 237.114 312.068C237.501 314.484 238.138 318.025 238.53 319.937C238.922 321.849 239.952 326.461 240.818 330.185C241.684 333.91 243.819 340.992 245.563 345.925C247.307 350.856 249.913 357.445 251.353 360.565C252.794 363.685 254.652 367.556 255.484 369.167C256.315 370.777 257.831 373.577 258.853 375.389C259.875 377.201 261.563 379.971 262.602 381.546C263.642 383.121 265.106 385.426 265.854 386.67C266.603 387.914 268.648 390.987 270.4 393.5C272.152 396.013 275.788 400.79 278.48 404.114C281.173 407.44 288.021 414.716 293.699 420.285C299.377 425.854 304.138 430.924 304.279 431.553C304.46 432.357 304.132 432.591 303.175 432.341C302.427 432.145 299.017 430.409 295.598 428.484C292.179 426.558 287.735 423.82 285.722 422.401C283.709 420.98 278.989 417.164 275.235 413.921C271.48 410.677 265.742 404.881 262.482 401.039C259.223 397.198 253.929 390.103 250.719 385.271C247.508 380.44 242.778 372.175 240.206 366.903C237.635 361.633 234.692 355.044 233.666 352.263C232.639 349.482 231.003 344.735 230.03 341.716C229.058 338.696 227.932 335.072 227.53 333.663C227.127 332.254 226.167 328.301 225.397 324.879C224.626 321.457 223.643 316.68 223.212 314.264C222.781 311.849 222.105 306.908 221.709 303.284C221.314 299.66 220.647 293.402 220.225 289.375C219.804 285.349 219.462 278.284 219.466 273.675C219.47 269.065 219.819 262.477 220.241 259.034C220.663 255.591 221.351 250.139 221.768 246.918C222.185 243.697 223.011 238.591 223.603 235.571C224.195 232.552 225.292 227.775 226.041 224.957C226.79 222.139 228.424 216.741 229.671 212.96C230.919 209.181 233.561 202.428 235.543 197.954C237.524 193.48 240.475 187.402 242.099 184.447C243.724 181.492 246.762 176.551 248.848 173.467C250.934 170.382 254.805 165.059 257.451 161.636C260.096 158.214 264.74 152.821 267.769 149.65C270.799 146.48 276.407 141.351 280.231 138.252C284.056 135.152 290.413 130.405 294.356 127.702C298.299 125.001 304.723 121.182 308.631 119.219C312.538 117.255 318.426 114.465 321.714 113.019C325.003 111.574 330.768 109.381 334.525 108.148C338.282 106.914 344.65 105.152 348.676 104.23C352.702 103.309 358.138 102.19 360.755 101.742C363.372 101.295 368.972 100.546 373.199 100.078C378.025 99.5435 386.062 99.3912 394.794 99.668C402.444 99.911 410.514 100.285 412.729 100.5C414.943 100.716 418.402 101.207 420.415 101.592C422.428 101.977 426.875 102.834 430.297 103.496C433.72 104.159 437.837 104.98 439.448 105.323C441.058 105.664 444.517 106.577 447.134 107.35C449.751 108.124 455.516 109.995 459.945 111.508C464.373 113.021 470.962 115.577 474.585 117.188C478.209 118.799 483.809 121.428 487.03 123.03C490.251 124.632 496.015 127.785 499.84 130.036C503.665 132.287 508.782 135.459 511.212 137.086C513.64 138.711 519.109 142.746 523.365 146.053C527.62 149.36 535.157 155.948 540.114 160.694C545.072 165.439 552.161 172.946 555.867 177.375C559.574 181.804 564.735 188.392 567.338 192.016C569.939 195.639 574.159 202.063 576.714 206.29C579.269 210.518 583.169 217.765 585.381 222.395C587.594 227.025 590.523 233.613 591.89 237.035C593.258 240.458 595.358 246.219 596.557 249.84C597.756 253.461 599.417 258.896 600.248 261.919C601.079 264.941 602.392 270.379 603.165 274.003C603.938 277.626 604.911 282.732 605.326 285.349C605.741 287.966 606.39 292.743 606.768 295.964C607.145 299.185 607.662 308.244 607.916 316.095C608.209 325.143 608.067 333.317 607.529 338.421C607.061 342.85 606.339 348.78 605.925 351.598C605.51 354.416 604.829 358.534 604.409 360.748C603.99 362.963 603.299 366.422 602.873 368.435C602.447 370.448 601.299 375.059 600.322 378.683C599.346 382.307 597.636 387.907 596.522 391.128C595.407 394.348 593.392 399.784 592.042 403.206C590.692 406.628 586.908 414.739 583.633 421.23C580.358 427.721 575.524 436.286 572.89 440.263C570.256 444.24 565.021 451.447 561.255 456.278C557.49 461.11 549.79 469.699 544.144 475.366C538.499 481.032 530.263 488.539 525.843 492.045C521.423 495.551 515.659 499.859 513.033 501.616C510.407 503.375 506.299 506.05 503.903 507.563C501.508 509.076 497.72 511.297 495.485 512.499C493.25 513.701 488.833 516.005 485.667 517.62C482.503 519.236 477.562 521.533 474.687 522.726C471.813 523.919 466.826 525.864 463.605 527.048C460.384 528.233 454.784 530.131 451.16 531.266C447.537 532.401 440.784 534.173 436.154 535.203C431.524 536.233 424.441 537.574 420.415 538.183C416.389 538.791 408.977 539.639 403.944 540.067C398.912 540.494 390.841 540.794 386.01 540.733ZM351.221 507.154C350.784 507.154 350.506 502.416 350.506 494.977C350.506 488.279 350.156 480.621 349.73 477.957C349.302 475.294 348.615 471.303 348.202 469.089C347.789 466.874 346.939 462.757 346.313 459.938C345.687 457.12 344.384 452.508 343.416 449.69C342.448 446.872 340.955 442.919 340.098 440.906C339.242 438.892 337.965 435.928 337.262 434.317C336.558 432.707 334.479 428.26 332.641 424.435C330.804 420.61 327.998 415.175 326.407 412.356C324.278 408.586 320.97 404.745 313.888 397.82C308.594 392.644 301.472 384.903 298.061 380.618C294.65 376.333 289.738 369.661 287.146 365.791C284.553 361.921 281.026 355.992 279.305 352.615C277.586 349.237 274.893 343.509 273.321 339.885C271.749 336.262 270.061 332.309 269.569 331.101C269.076 329.893 268 326.764 267.177 324.147C266.354 321.53 265.182 317.577 264.573 315.363C263.964 313.148 262.97 309.195 262.365 306.578C261.759 303.961 260.902 299.185 260.459 295.964C260.016 292.743 259.342 288.093 258.962 285.631C258.582 283.169 258.271 275.009 258.271 267.497C258.271 253.841 258.271 253.841 260.096 253.009C261.367 252.43 265.76 252.318 274.554 252.642C281.502 252.897 290.315 253.595 294.14 254.193C297.965 254.791 302.906 255.613 305.12 256.019C307.335 256.425 311.453 257.249 314.271 257.849C317.089 258.45 320.548 259.28 321.957 259.693C323.366 260.107 327.319 261.238 330.741 262.209C334.164 263.179 339.599 264.956 342.82 266.157C346.041 267.358 350.921 269.401 353.664 270.698C356.406 271.994 359.536 273.867 360.618 274.859C362.585 276.664 362.585 276.664 357.827 276.23C355.21 275.99 351.586 275.485 349.774 275.107C347.962 274.728 344.422 274.078 341.905 273.662C339.389 273.245 335.435 272.596 333.121 272.219C330.806 271.841 326.606 271.185 323.787 270.761C320.969 270.338 317.181 269.839 315.369 269.654C313.557 269.469 305.237 268.819 296.879 268.21C288.182 267.576 279.885 267.333 277.48 267.639C273.277 268.176 273.277 268.176 273.396 276.58C273.461 281.202 273.883 287.783 274.334 291.206C274.783 294.628 275.65 299.734 276.257 302.552C276.866 305.37 277.878 309.488 278.508 311.702C279.136 313.917 280.504 318.199 281.546 321.219C282.589 324.238 284.471 329.18 285.73 332.199C286.99 335.219 290.2 341.642 292.863 346.474C295.527 351.305 299.993 358.552 302.789 362.578C305.585 366.605 309.97 372.185 312.535 374.98C315.1 377.774 319.999 382.839 323.421 386.233C326.843 389.628 333.761 395.862 338.794 400.087C343.827 404.311 350.364 409.408 353.32 411.412C356.277 413.416 361.218 416.26 364.301 417.732C369.234 420.088 370.573 420.409 375.483 420.409C380.626 420.409 381.557 420.158 387.428 417.18C390.93 415.405 396.335 412.11 399.44 409.86C402.543 407.609 408.368 403.098 412.383 399.833C416.398 396.569 423.908 389.816 429.071 384.826C434.234 379.837 438.813 375.628 439.247 375.474C439.769 375.288 439.872 376.016 439.55 377.625C439.282 378.961 437.703 382.547 436.042 385.591C434.38 388.636 430.864 393.928 428.229 397.35C425.593 400.772 420.287 406.829 416.436 410.809C412.585 414.789 406.141 420.521 402.114 423.548C398.088 426.575 392.335 430.223 389.329 431.657C384.552 433.936 383.007 434.301 377.042 434.562C371.327 434.811 369.479 434.595 365.67 433.226C363.167 432.328 358.422 430.146 355.125 428.378C351.828 426.611 348.956 425.446 348.744 425.789C348.532 426.132 349.292 429.345 350.432 432.927C351.572 436.51 353.183 442.077 354.011 445.298C354.839 448.519 355.852 452.966 356.261 455.18C356.67 457.394 357.354 461.385 357.782 464.049C358.209 466.712 358.559 473.037 358.559 478.104C358.559 483.171 358.202 489.063 357.767 491.197C357.331 493.33 356.307 497.052 355.491 499.468C354.676 501.884 353.543 504.602 352.972 505.507C352.403 506.413 351.615 507.154 351.221 507.154ZM417.406 498.984C416.634 499.152 416.348 498.786 416.513 497.843C416.646 497.079 417.785 494.825 419.044 492.836C420.303 490.847 422.95 486.419 424.926 482.997C426.902 479.575 429.557 474.634 430.827 472.017C432.097 469.4 434.105 464.953 435.29 462.134C436.474 459.316 438.288 454.54 439.32 451.52C440.352 448.5 441.905 443.724 442.772 440.906C443.638 438.087 445.003 433.311 445.805 430.291C446.607 427.271 447.531 423.483 447.859 421.873C448.187 420.262 448.984 415.65 449.63 411.624C450.277 407.598 451.133 402.074 451.532 399.349C451.932 396.624 452.261 387.73 452.263 379.584C452.266 371.439 451.917 362.139 451.488 358.918C451.06 355.697 450.374 351.25 449.965 349.036C449.556 346.821 448.916 343.775 448.543 342.265C448.171 340.755 447.494 338.12 447.039 336.408C446.584 334.697 445.427 330.991 444.467 328.173C443.508 325.355 441.162 319.765 439.255 315.751C437.348 311.738 434.184 305.974 432.224 302.941C430.264 299.909 426.932 295.287 424.818 292.67C422.705 290.053 419.532 286.416 417.767 284.587C416.002 282.759 412.253 279.2 409.435 276.678C406.616 274.156 400.193 269.34 395.16 265.975C390.127 262.611 382.129 257.873 377.387 255.448C372.644 253.023 365.26 249.668 360.977 247.993C356.693 246.319 349.374 243.814 344.71 242.428C340.047 241.041 334.091 239.304 331.474 238.568C328.857 237.832 325.068 236.868 323.055 236.424C321.042 235.981 316.924 235.131 313.905 234.536C310.885 233.94 306.273 233.088 303.656 232.641C301.039 232.195 296.592 231.487 293.774 231.067C290.956 230.648 286.535 230.089 283.95 229.826C281.365 229.564 279.128 228.979 278.978 228.526C278.829 228.072 279.626 227.478 280.75 227.205C281.874 226.933 288.394 226.513 295.238 226.275C302.905 226.006 311.476 226.185 317.565 226.74C323 227.236 331.236 228.284 335.866 229.069C340.496 229.856 348.072 231.498 352.702 232.72C357.332 233.943 363.756 235.877 366.977 237.019C370.198 238.161 375.63 240.3 379.047 241.772C382.464 243.244 387.62 245.708 390.504 247.245C393.389 248.782 399.157 252.366 403.324 255.209C407.49 258.052 413.538 262.621 416.765 265.361C419.992 268.101 425.003 272.902 427.902 276.03C430.8 279.158 435.627 285.01 438.628 289.034C442.037 293.606 446.165 300.536 449.628 307.504C452.677 313.638 456.205 321.621 457.467 325.245C458.729 328.868 460.072 332.986 460.45 334.395C460.827 335.804 461.478 338.44 461.894 340.252C462.31 342.063 462.956 344.863 463.33 346.474C463.704 348.084 464.403 351.872 464.886 354.892C465.41 358.173 465.763 368.337 465.763 380.147C465.763 391.958 465.41 402.121 464.886 405.402C464.403 408.422 463.704 412.21 463.332 413.82C462.959 415.431 462.311 418.396 461.892 420.409C461.472 422.422 459.952 427.685 458.514 432.105C457.075 436.525 454.961 442.454 453.816 445.282C452.671 448.109 449.704 454.375 447.223 459.206C444.743 464.038 442.022 469.144 441.177 470.553C440.332 471.962 437.991 475.585 435.975 478.605C433.958 481.625 430.786 485.895 428.924 488.095C427.063 490.295 423.965 493.589 422.04 495.415C420.116 497.242 418.03 498.848 417.406 498.984ZM376.063 390.729C365.74 390.701 363.688 390.503 361.487 389.32C360.078 388.563 356.913 385.86 354.454 383.313C351.995 380.766 348.548 377.087 346.793 375.137C345.039 373.186 343.604 370.987 343.604 370.25C343.604 369.513 345.569 367.035 347.971 364.744C350.372 362.453 355.096 358.24 358.469 355.382C362.613 351.87 365.345 350.1 366.888 349.926C368.344 349.761 370.448 350.35 372.689 351.548C376.205 353.428 376.205 353.428 378.898 351.598C380.38 350.591 382.635 349.768 383.911 349.768C385.541 349.768 387.606 350.802 390.856 353.245C393.4 355.157 398.4 359.505 401.967 362.906C406.983 367.689 408.383 369.449 408.148 370.676C407.982 371.549 406.283 373.872 404.373 375.839C402.464 377.806 399.362 381.171 397.481 383.317C395.601 385.463 392.715 388.016 391.069 388.99C388.223 390.675 387.489 390.76 376.063 390.729ZM375.4 377.527C378.825 377.559 382.753 377.262 384.129 376.868C385.505 376.473 387.562 375.258 388.7 374.169C389.837 373.079 390.75 371.672 390.728 371.043C390.705 370.413 389.688 369.109 388.468 368.143C387.248 367.178 385.371 366.392 384.299 366.398C383.227 366.403 380.867 366.973 379.056 367.663C375.856 368.883 375.654 368.874 371.896 367.316C368.605 365.952 367.714 365.844 365.909 366.592C364.743 367.075 363.232 368.085 362.551 368.838C361.763 369.709 361.471 370.833 361.747 371.934C361.986 372.886 362.766 374.174 363.481 374.797C364.196 375.42 365.769 376.276 366.977 376.7C368.185 377.123 371.975 377.496 375.4 377.527Z" fill="url(#paint0_linear)"/>
<path d="M196.835 624.095H185.449L210.574 693.914H222.744L247.869 624.095H236.483L217.051 680.959H216.267L196.835 624.095Z" fill="#C79F67"/>
<path d="M267.327 624.095H257.133V693.914H267.327V624.095Z" fill="#C79F67"/>
<path d="M296.278 695.073C304.937 695.073 309.812 690.675 311.756 686.755H312.165V693.914H322.119V659.141C322.119 643.902 310.119 640.868 301.801 640.868C292.324 640.868 283.597 644.686 280.187 654.232L289.767 656.414C291.267 652.698 295.085 649.118 301.937 649.118C308.517 649.118 311.892 652.561 311.892 658.493V658.732C311.892 662.448 308.074 662.38 298.665 663.47C288.744 664.63 278.585 667.22 278.585 679.118C278.585 689.414 286.324 695.073 296.278 695.073ZM298.494 686.891C292.733 686.891 288.574 684.3 288.574 679.255C288.574 673.8 293.415 671.857 299.312 671.073C302.619 670.63 310.46 669.743 311.926 668.277V675.027C311.926 681.232 306.983 686.891 298.494 686.891Z" fill="#C79F67"/>
<path d="M355.298 694.936C364.844 694.936 368.594 689.107 370.435 685.766H371.287V693.914H381.241V624.095H371.048V650.039H370.435C368.594 646.8 365.116 640.868 355.366 640.868C342.719 640.868 333.412 650.857 333.412 667.834C333.412 684.777 342.582 694.936 355.298 694.936ZM357.548 686.243C348.446 686.243 343.707 678.232 343.707 667.732C343.707 657.334 348.344 649.527 357.548 649.527C366.446 649.527 371.219 656.789 371.219 667.732C371.219 678.743 366.344 686.243 357.548 686.243ZM387.651 638.482H394.401L396.787 620.72H387.651V638.482Z" fill="#C79F67"/>
<path d="M402.54 693.914H412.733V675.334L417.812 670.255L435.608 693.914H448.119L425.483 664.016L446.688 641.55H434.483L413.619 663.709H412.733V624.095H402.54V693.914Z" fill="#C79F67"/>
<path d="M471.216 695.073C479.875 695.073 484.75 690.675 486.693 686.755H487.102V693.914H497.057V659.141C497.057 643.902 485.057 640.868 476.739 640.868C467.261 640.868 458.534 644.686 455.125 654.232L464.705 656.414C466.205 652.698 470.023 649.118 476.875 649.118C483.455 649.118 486.83 652.561 486.83 658.493V658.732C486.83 662.448 483.011 662.38 473.602 663.47C463.682 664.63 453.523 667.22 453.523 679.118C453.523 689.414 461.261 695.073 471.216 695.073ZM473.432 686.891C467.67 686.891 463.511 684.3 463.511 679.255C463.511 673.8 468.352 671.857 474.25 671.073C477.557 670.63 485.398 669.743 486.864 668.277V675.027C486.864 681.232 481.92 686.891 473.432 686.891Z" fill="#C79F67"/>
<path d="M536.858 693.914H547.392V672.198L555.642 662.72L578.21 693.914H590.892L562.631 655.527L590.79 624.095H577.528L548.244 657.436H547.392V624.095H536.858V693.914Z" fill="#C79F67"/>
<defs>
<linearGradient id="paint0_linear" x1="537.786" y1="119.138" x2="268.309" y2="521.73" gradientUnits="userSpaceOnUse">
<stop stop-color="#735247"/>
<stop offset="1" stop-color="#EBB67C"/>
</linearGradient>
</defs>
</svg>
