<svg fill="none" height="752" viewBox="0 0 776 752" width="776" xmlns="http://www.w3.org/2000/svg" xmlns:xlink="http://www.w3.org/1999/xlink"><linearGradient id="a" gradientUnits="userSpaceOnUse" x1="537.786" x2="268.309" y1="119.138" y2="521.73"><stop offset="0" stop-color="#735247"/><stop offset="1" stop-color="#ebb67c"/></linearGradient><path d="m386.01 540.733c-4.832-.061-10.596-.362-12.811-.668-2.214-.306-5.983-.59-8.374-.629-2.392-.04-6.258-.422-8.592-.849s-6.717-1.262-9.739-1.853c-3.022-.592-7.584-1.532-10.137-2.089-2.553-.556-7.909-2.065-11.901-3.354-3.991-1.288-8.739-2.779-10.551-3.313s-5.765-1.989-8.785-3.234c-3.019-1.244-8.29-3.616-11.712-5.271s-7.375-3.576-8.784-4.271c-1.409-.694-3.861-1.995-5.448-2.891s-5.705-3.455-9.15-5.685c-3.446-2.231-8.564-5.742-11.373-7.803-2.81-2.061-7.092-5.331-9.517-7.267-2.424-1.936-6.22-5.066-8.434-6.954-2.214-1.89-5.35-4.753-6.968-6.363s-5.242-5.399-8.054-8.418c-2.812-3.02-7.701-8.949-10.865-13.177-3.163-4.227-6.464-8.51-7.335-9.516-.871-1.007-2.358-3.148-3.303-4.758-.947-1.611-2.331-3.811-3.078-4.889-.746-1.077-2.023-3.137-2.839-4.574-.814-1.439-2.367-4.18-3.45-6.092-1.082-1.913-2.883-5.377-4.002-7.698-1.119-2.322-3.165-6.604-4.547-9.517-1.383-2.912-4.217-10.365-6.3-16.56s-4.714-14.924-5.849-19.398c-1.134-4.475-2.572-11.1-3.196-14.724-.624-3.623-1.566-9.882-2.093-13.908-.59-4.51-.93-14.296-.885-25.489.042-10.403.469-20.884.999-24.523.51-3.495 1.542-9.978 2.295-14.407.751-4.429 2.535-12.335 3.964-17.569 1.428-5.234 4.096-13.634 5.928-18.666 1.831-5.033 4.704-11.931 6.382-15.329 1.679-3.398 3.381-6.101 3.784-6.006s.623.899.49 1.786c-.134.888-1.087 4.579-2.12 8.202-1.032 3.624-2.286 8.565-2.785 10.981-.499 2.415-1.438 7.027-2.085 10.248-.648 3.221-1.493 7.503-1.877 9.516-.383 2.014-1.042 6.708-1.464 10.433-.422 3.724-1.098 9.506-1.503 12.848-.404 3.342-.735 12.388-.735 20.102 0 7.713.328 17.414.727 21.556.4 4.143 1.07 10.168 1.488 13.389s1.064 7.338 1.434 9.15 1.058 5.271 1.528 7.686c.47 2.416 1.505 6.863 2.299 9.883.794 3.019 1.943 7.137 2.553 9.15.609 2.013 1.938 5.966 2.952 8.784 1.014 2.819 2.358 6.607 2.988 8.419.63 1.811 4.191 9.388 7.914 16.836 3.723 7.449 8.968 16.837 11.655 20.863 2.688 4.026 6.297 9.297 8.021 11.713 1.724 2.415 4.862 6.368 6.973 8.784 2.11 2.416 5.871 6.533 8.356 9.15 2.486 2.617 6.885 6.974 9.778 9.682s8.309 7.345 12.036 10.304c3.726 2.96 10.379 7.793 14.783 10.741 4.404 2.949 12.31 7.535 17.568 10.193 5.258 2.657 12.196 5.936 15.418 7.284 3.221 1.35 7.833 3.104 10.249 3.901 2.416.796 5.051 1.719 5.856 2.049.805.331 3.276 1.123 5.49 1.76 2.215.637 6.827 1.8 10.249 2.586 3.422.784 10.34 2.127 15.372 2.983 6.19 1.054 14.006 1.697 24.157 1.988 9.02.258 19.095.092 25.255-.416 5.637-.465 13.378-1.321 17.203-1.902 3.825-.58 10.249-1.89 14.275-2.912s9.626-2.572 12.444-3.447c2.818-.874 8.135-2.681 11.815-4.016 3.681-1.336 9.268-3.602 12.417-5.037s8.335-3.939 11.524-5.563c3.19-1.625 8.754-4.783 12.366-7.017 3.613-2.235 9.251-6.069 12.53-8.521 3.28-2.451 9.257-7.258 13.283-10.681s10.233-9.2 13.793-12.836c3.561-3.637 9.215-10.095 12.567-14.351 3.351-4.255 8.887-12.008 12.303-17.228 3.416-5.219 7.994-12.951 10.174-17.184 2.18-4.232 5.213-10.645 6.74-14.25 1.528-3.605 3.86-9.728 5.184-13.607 1.323-3.879 3.288-10.576 4.366-14.882 1.079-4.306 2.285-9.532 2.682-11.614.396-2.081 1.036-5.926 1.419-8.543.384-2.617 1.01-8.052 1.39-12.079.38-4.026.689-12.59.686-19.032-.004-6.442-.326-15.172-.719-19.399-.392-4.228-.997-9.663-1.343-12.079-.347-2.415-.979-6.203-1.405-8.418-.427-2.214-1.779-7.894-3.005-12.621-1.227-4.727-3.264-11.645-4.527-15.372-1.262-3.728-3.236-9.16-4.384-12.072-1.15-2.911-3.932-8.965-6.183-13.453-2.251-4.489-6.252-11.66-8.891-15.936-2.638-4.277-6.727-10.341-9.086-13.479-2.358-3.137-6.567-8.407-9.354-11.712s-8.639-9.506-13.005-13.779c-4.366-4.274-10.573-9.895-13.794-12.492-3.221-2.596-8.656-6.703-12.079-9.126-3.422-2.423-9.022-6.071-12.444-8.108-3.422-2.036-9.595-5.387-13.718-7.445-4.122-2.06-10.875-5.094-15.006-6.744-4.132-1.65-10.311-3.917-13.734-5.038-3.422-1.122-9.846-2.902-14.274-3.958-4.429-1.055-9.535-2.229-11.347-2.611-1.812-.38-6.423-1.12-10.248-1.642-4.292-.585-14.66-.948-27.085-.948-18.069 0-21.031.174-28.915 1.703-4.832.937-11.091 2.361-13.909 3.165s-7.924 2.466-11.346 3.693c-3.423 1.227-8.364 3.243-10.981 4.479s-8.217 4.337-12.444 6.892c-4.228 2.554-9.637 6.032-12.02 7.729-2.383 1.696-6.83 5.349-9.882 8.117s-7.609 7.215-10.125 9.883c-2.516 2.666-6.634 7.418-9.15 10.558-2.517 3.139-5.962 7.916-7.658 10.614s-4.664 7.705-6.596 11.128c-1.933 3.422-4.875 9.187-6.541 12.81-1.664 3.624-3.763 8.894-4.663 11.713-.9 2.818-1.922 5.783-2.271 6.588-.35.805-1.464 4.758-2.475 8.784-1.013 4.026-2.187 9.297-2.611 11.713-.424 2.415-1.229 8.015-1.789 12.444s-1.033 11.581-1.051 15.893c-.017 4.313.297 11.23.699 15.373.402 4.142 1.084 10.332 1.516 13.754.431 3.422 1.1 8.199 1.486 10.614.387 2.416 1.024 5.957 1.416 7.869s1.422 6.524 2.288 10.248c.866 3.725 3.001 10.807 4.745 15.74 1.744 4.931 4.35 11.52 5.79 14.64 1.441 3.12 3.299 6.991 4.131 8.602.831 1.61 2.347 4.41 3.369 6.222s2.71 4.582 3.749 6.157c1.04 1.575 2.504 3.88 3.252 5.124.749 1.244 2.794 4.317 4.546 6.83s5.388 7.29 8.08 10.614c2.693 3.326 9.541 10.602 15.219 16.171s10.439 10.639 10.58 11.268c.181.804-.147 1.038-1.104.788-.748-.196-4.158-1.932-7.577-3.857-3.419-1.926-7.863-4.664-9.876-6.083-2.013-1.421-6.733-5.237-10.487-8.48-3.755-3.244-9.493-9.04-12.753-12.882-3.259-3.841-8.553-10.936-11.763-15.768-3.211-4.831-7.941-13.096-10.513-18.368-2.571-5.27-5.514-11.859-6.54-14.64-1.027-2.781-2.663-7.528-3.636-10.547-.972-3.02-2.098-6.644-2.5-8.053-.403-1.409-1.363-5.362-2.133-8.784-.771-3.422-1.754-8.199-2.185-10.615-.431-2.415-1.107-7.356-1.503-10.98-.395-3.624-1.062-9.882-1.484-13.909-.421-4.026-.763-11.091-.759-15.7.004-4.61.353-11.198.775-14.641s1.11-8.895 1.527-12.116 1.243-8.327 1.835-11.347c.592-3.019 1.689-7.796 2.438-10.614s2.383-8.216 3.63-11.997c1.248-3.779 3.89-10.532 5.872-15.006 1.981-4.474 4.932-10.552 6.556-13.507 1.625-2.955 4.663-7.896 6.749-10.98 2.086-3.085 5.957-8.408 8.603-11.831 2.645-3.422 7.289-8.815 10.318-11.986 3.03-3.17 8.638-8.299 12.462-11.398 3.825-3.1 10.182-7.847 14.125-10.55 3.943-2.701 10.367-6.52 14.275-8.483 3.907-1.964 9.795-4.754 13.083-6.2 3.289-1.445 9.054-3.638 12.811-4.871 3.757-1.234 10.125-2.996 14.151-3.918 4.026-.921 9.462-2.04 12.079-2.488 2.617-.447 8.217-1.196 12.444-1.664 4.826-.5345 12.863-.6868 21.595-.41 7.65.243 15.72.617 17.935.832 2.214.216 5.673.707 7.686 1.092s6.46 1.242 9.882 1.904c3.423.663 7.54 1.484 9.151 1.827 1.61.341 5.069 1.254 7.686 2.027 2.617.774 8.382 2.645 12.811 4.158 4.428 1.513 11.017 4.069 14.64 5.68 3.624 1.611 9.224 4.24 12.445 5.842s8.985 4.755 12.81 7.006 8.942 5.423 11.372 7.05c2.428 1.625 7.897 5.66 12.153 8.967 4.255 3.307 11.792 9.895 16.749 14.641 4.958 4.745 12.047 12.252 15.753 16.681 3.707 4.429 8.868 11.017 11.471 14.641 2.601 3.623 6.821 10.047 9.376 14.274 2.555 4.228 6.455 11.475 8.667 16.105 2.213 4.63 5.142 11.218 6.509 14.64 1.368 3.423 3.468 9.184 4.667 12.805s2.86 9.056 3.691 12.079c.831 3.022 2.144 8.46 2.917 12.084.773 3.623 1.746 8.729 2.161 11.346s1.064 7.394 1.442 10.615c.377 3.221.894 12.28 1.148 20.131.293 9.048.151 17.222-.387 22.326-.468 4.429-1.19 10.359-1.604 13.177-.415 2.818-1.096 6.936-1.516 9.15-.419 2.215-1.11 5.674-1.536 7.687s-1.574 6.624-2.551 10.248c-.976 3.624-2.686 9.224-3.8 12.445-1.115 3.22-3.13 8.656-4.48 12.078s-5.134 11.533-8.409 18.024-8.109 15.056-10.743 19.033-7.869 11.184-11.635 16.015c-3.765 4.832-11.465 13.421-17.111 19.088-5.645 5.666-13.881 13.173-18.301 16.679s-10.184 7.814-12.81 9.571c-2.626 1.759-6.734 4.434-9.13 5.947-2.395 1.513-6.183 3.734-8.418 4.936s-6.652 3.506-9.818 5.121c-3.164 1.616-8.105 3.913-10.98 5.106-2.874 1.193-7.861 3.138-11.082 4.322-3.221 1.185-8.821 3.083-12.445 4.218-3.623 1.135-10.376 2.907-15.006 3.937s-11.713 2.371-15.739 2.98c-4.026.608-11.438 1.456-16.471 1.884-5.032.427-13.103.727-17.934.666zm-34.789-33.579c-.437 0-.715-4.738-.715-12.177 0-6.698-.35-14.356-.776-17.02-.428-2.663-1.115-6.654-1.528-8.868-.413-2.215-1.263-6.332-1.889-9.151-.626-2.818-1.929-7.43-2.897-10.248s-2.461-6.771-3.318-8.784c-.856-2.014-2.133-4.978-2.836-6.589-.704-1.61-2.783-6.057-4.621-9.882-1.837-3.825-4.643-9.26-6.234-12.079-2.129-3.77-5.437-7.611-12.519-14.536-5.294-5.176-12.416-12.917-15.827-17.202s-8.323-10.957-10.915-14.827c-2.593-3.87-6.12-9.799-7.841-13.176-1.719-3.378-4.412-9.106-5.984-12.73-1.572-3.623-3.26-7.576-3.752-8.784-.493-1.208-1.569-4.337-2.392-6.954s-1.995-6.57-2.604-8.784c-.609-2.215-1.603-6.168-2.208-8.785-.606-2.617-1.463-7.393-1.906-10.614s-1.117-7.871-1.497-10.333-.691-10.622-.691-18.134c0-13.656 0-13.656 1.825-14.488 1.271-.579 5.664-.691 14.458-.367 6.948.255 15.761.953 19.586 1.551s8.766 1.42 10.98 1.826c2.215.406 6.333 1.23 9.151 1.83 2.818.601 6.277 1.431 7.686 1.844 1.409.414 5.362 1.545 8.784 2.516 3.423.97 8.858 2.747 12.079 3.948s8.101 3.244 10.844 4.541c2.742 1.296 5.872 3.169 6.954 4.161 1.967 1.805 1.967 1.805-2.791 1.371-2.617-.24-6.241-.745-8.053-1.123-1.812-.379-5.352-1.029-7.869-1.445-2.516-.417-6.47-1.066-8.784-1.443-2.315-.378-6.515-1.034-9.334-1.458-2.818-.423-6.606-.922-8.418-1.107s-10.132-.835-18.49-1.444c-8.697-.634-16.994-.877-19.399-.571-4.203.537-4.203.537-4.084 8.941.065 4.622.487 11.203.938 14.626.449 3.422 1.316 8.528 1.923 11.346.609 2.818 1.621 6.936 2.251 9.15.628 2.215 1.996 6.497 3.038 9.517 1.043 3.019 2.925 7.961 4.184 10.98 1.26 3.02 4.47 9.443 7.133 14.275 2.664 4.831 7.13 12.078 9.926 16.104 2.796 4.027 7.181 9.607 9.746 12.402 2.565 2.794 7.464 7.859 10.886 11.253 3.422 3.395 10.34 9.629 15.373 13.854 5.033 4.224 11.57 9.321 14.526 11.325 2.957 2.004 7.898 4.848 10.981 6.32 4.933 2.356 6.272 2.677 11.182 2.677 5.143 0 6.074-.251 11.945-3.229 3.502-1.775 8.907-5.07 12.012-7.32 3.103-2.251 8.928-6.762 12.943-10.027 4.015-3.264 11.525-10.017 16.688-15.007 5.163-4.989 9.742-9.198 10.176-9.352.522-.186.625.542.303 2.151-.268 1.336-1.847 4.922-3.508 7.966-1.662 3.045-5.178 8.337-7.813 11.759-2.636 3.422-7.942 9.479-11.793 13.459s-10.295 9.712-14.322 12.739c-4.026 3.027-9.779 6.675-12.785 8.109-4.777 2.279-6.322 2.644-12.287 2.905-5.715.249-7.563.033-11.372-1.336-2.503-.898-7.248-3.08-10.545-4.848-3.297-1.767-6.169-2.932-6.381-2.589s.548 3.556 1.688 7.138c1.14 3.583 2.751 9.15 3.579 12.371s1.841 7.668 2.25 9.882 1.093 6.205 1.521 8.869c.427 2.663.777 8.988.777 14.055s-.357 10.959-.792 13.093c-.436 2.133-1.46 5.855-2.276 8.271-.815 2.416-1.948 5.134-2.519 6.039-.569.906-1.357 1.647-1.751 1.647zm66.185-8.17c-.772.168-1.058-.198-.893-1.141.133-.764 1.272-3.018 2.531-5.007s3.906-6.417 5.882-9.839 4.631-8.363 5.901-10.98 3.278-7.064 4.463-9.883c1.184-2.818 2.998-7.594 4.03-10.614s2.585-7.796 3.452-10.614c.866-2.819 2.231-7.595 3.033-10.615s1.726-6.808 2.054-8.418c.328-1.611 1.125-6.223 1.771-10.249.647-4.026 1.503-9.55 1.902-12.275.4-2.725.729-11.619.731-19.765.003-8.145-.346-17.445-.775-20.666-.428-3.221-1.114-7.668-1.523-9.882-.409-2.215-1.049-5.261-1.422-6.771-.372-1.51-1.049-4.145-1.504-5.857-.455-1.711-1.612-5.417-2.572-8.235-.959-2.818-3.305-8.408-5.212-12.422-1.907-4.013-5.071-9.777-7.031-12.81-1.96-3.032-5.292-7.654-7.406-10.271-2.113-2.617-5.286-6.254-7.051-8.083-1.765-1.828-5.514-5.387-8.332-7.909-2.819-2.522-9.242-7.338-14.275-10.703-5.033-3.364-13.031-8.102-17.773-10.527-4.743-2.425-12.127-5.78-16.41-7.455-4.284-1.674-11.603-4.179-16.267-5.565-4.663-1.387-10.619-3.124-13.236-3.86s-6.406-1.7-8.419-2.144c-2.013-.443-6.131-1.293-9.15-1.888-3.02-.596-7.632-1.448-10.249-1.895-2.617-.446-7.064-1.154-9.882-1.574-2.818-.419-7.239-.978-9.824-1.241-2.585-.262-4.822-.847-4.972-1.3-.149-.454.648-1.048 1.772-1.321 1.124-.272 7.644-.692 14.488-.93 7.667-.269 16.238-.09 22.327.465 5.435.496 13.671 1.544 18.301 2.329 4.63.787 12.206 2.429 16.836 3.651 4.63 1.223 11.054 3.157 14.275 4.299s8.653 3.281 12.07 4.753 8.573 3.936 11.457 5.473c2.885 1.537 8.653 5.121 12.82 7.964 4.166 2.843 10.214 7.412 13.441 10.152s8.238 7.541 11.137 10.669c2.898 3.128 7.725 8.98 10.726 13.004 3.409 4.572 7.537 11.502 11 18.47 3.049 6.134 6.577 14.117 7.839 17.741 1.262 3.623 2.605 7.741 2.983 9.15.377 1.409 1.028 4.045 1.444 5.857.416 1.811 1.062 4.611 1.436 6.222.374 1.61 1.073 5.398 1.556 8.418.524 3.281.877 13.445.877 25.255 0 11.811-.353 21.974-.877 25.255-.483 3.02-1.182 6.808-1.554 8.418-.373 1.611-1.021 4.576-1.44 6.589-.42 2.013-1.94 7.276-3.378 11.696-1.439 4.42-3.553 10.349-4.698 13.177-1.145 2.827-4.112 9.093-6.593 13.924-2.48 4.832-5.201 9.938-6.046 11.347s-3.186 5.032-5.202 8.052c-2.017 3.02-5.189 7.29-7.051 9.49-1.861 2.2-4.959 5.494-6.884 7.32-1.924 1.827-4.01 3.433-4.634 3.569zm-41.343-108.255c-10.323-.028-12.375-.226-14.576-1.409-1.409-.757-4.574-3.46-7.033-6.007s-5.906-6.226-7.661-8.176c-1.754-1.951-3.189-4.15-3.189-4.887s1.965-3.215 4.367-5.506c2.401-2.291 7.125-6.504 10.498-9.362 4.144-3.512 6.876-5.282 8.419-5.456 1.456-.165 3.56.424 5.801 1.622 3.516 1.88 3.516 1.88 6.209.05 1.482-1.007 3.737-1.83 5.013-1.83 1.63 0 3.695 1.034 6.945 3.477 2.544 1.912 7.544 6.26 11.111 9.661 5.016 4.783 6.416 6.543 6.181 7.77-.166.873-1.865 3.196-3.775 5.163-1.909 1.967-5.011 5.332-6.892 7.478-1.88 2.146-4.766 4.699-6.412 5.673-2.846 1.685-3.58 1.77-15.006 1.739zm-.663-13.202c3.425.032 7.353-.265 8.729-.659 1.376-.395 3.433-1.61 4.571-2.699 1.137-1.09 2.05-2.497 2.028-3.126-.023-.63-1.04-1.934-2.26-2.9-1.22-.965-3.097-1.751-4.169-1.745-1.072.005-3.432.575-5.243 1.265-3.2 1.22-3.402 1.211-7.16-.347-3.291-1.364-4.182-1.472-5.987-.724-1.166.483-2.677 1.493-3.358 2.246-.788.871-1.08 1.995-.804 3.096.239.952 1.019 2.24 1.734 2.863s2.288 1.479 3.496 1.903c1.208.423 4.998.796 8.423.827z" fill="url(#a)"/><g fill="#c79f67"><path d="m196.835 624.095h-11.386l25.125 69.819h12.17l25.125-69.819h-11.386l-19.432 56.864h-.784z"/><path d="m267.327 624.095h-10.194v69.819h10.194z"/><path d="m296.278 695.073c8.659 0 13.534-4.398 15.478-8.318h.409v7.159h9.954v-34.773c0-15.239-12-18.273-20.318-18.273-9.477 0-18.204 3.818-21.614 13.364l9.58 2.182c1.5-3.716 5.318-7.296 12.17-7.296 6.58 0 9.955 3.443 9.955 9.375v.239c0 3.716-3.818 3.648-13.227 4.738-9.921 1.16-20.08 3.75-20.08 15.648 0 10.296 7.739 15.955 17.693 15.955zm2.216-8.182c-5.761 0-9.92-2.591-9.92-7.636 0-5.455 4.841-7.398 10.738-8.182 3.307-.443 11.148-1.33 12.614-2.796v6.75c0 6.205-4.943 11.864-13.432 11.864z"/><path d="m355.298 694.936c9.546 0 13.296-5.829 15.137-9.17h.852v8.148h9.954v-69.819h-10.193v25.944h-.613c-1.841-3.239-5.319-9.171-15.069-9.171-12.647 0-21.954 9.989-21.954 26.966 0 16.943 9.17 27.102 21.886 27.102zm2.25-8.693c-9.102 0-13.841-8.011-13.841-18.511 0-10.398 4.637-18.205 13.841-18.205 8.898 0 13.671 7.262 13.671 18.205 0 11.011-4.875 18.511-13.671 18.511zm30.103-47.761h6.75l2.386-17.762h-9.136z"/><path d="m402.54 693.914h10.193v-18.58l5.079-5.079 17.796 23.659h12.511l-22.636-29.898 21.205-22.466h-12.205l-20.864 22.159h-.886v-39.614h-10.193z"/><path d="m471.216 695.073c8.659 0 13.534-4.398 15.477-8.318h.409v7.159h9.955v-34.773c0-15.239-12-18.273-20.318-18.273-9.478 0-18.205 3.818-21.614 13.364l9.58 2.182c1.5-3.716 5.318-7.296 12.17-7.296 6.58 0 9.955 3.443 9.955 9.375v.239c0 3.716-3.819 3.648-13.228 4.738-9.92 1.16-20.079 3.75-20.079 15.648 0 10.296 7.738 15.955 17.693 15.955zm2.216-8.182c-5.762 0-9.921-2.591-9.921-7.636 0-5.455 4.841-7.398 10.739-8.182 3.307-.443 11.148-1.33 12.614-2.796v6.75c0 6.205-4.944 11.864-13.432 11.864z"/><path d="m536.858 693.914h10.534v-21.716l8.25-9.478 22.568 31.194h12.682l-28.261-38.387 28.159-31.432h-13.262l-29.284 33.341h-.852v-33.341h-10.534z"/></g></svg>